<svg width="214" height="221" viewBox="0 0 214 221" fill="none" xmlns="http://www.w3.org/2000/svg">
<rect width="213.214" height="220.629" rx="8" fill="white"/>
<path d="M29.2784 28.502H26.7898C26.7443 28.18 26.6515 27.894 26.5114 27.644C26.3712 27.3903 26.1913 27.1743 25.9716 26.9963C25.7519 26.8183 25.4981 26.6819 25.2102 26.5872C24.9261 26.4925 24.6174 26.4452 24.2841 26.4452C23.6818 26.4452 23.1572 26.5948 22.7102 26.894C22.2633 27.1895 21.9167 27.6213 21.6705 28.1895C21.4242 28.7539 21.3011 29.4395 21.3011 30.2463C21.3011 31.0759 21.4242 31.7728 21.6705 32.3372C21.9205 32.9016 22.2689 33.3278 22.7159 33.6156C23.1629 33.9035 23.6799 34.0475 24.267 34.0475C24.5966 34.0475 24.9015 34.0039 25.1818 33.9168C25.4659 33.8297 25.7178 33.7028 25.9375 33.5361C26.1572 33.3656 26.339 33.1592 26.483 32.9168C26.6307 32.6743 26.733 32.3978 26.7898 32.0872L29.2784 32.0986C29.214 32.6327 29.053 33.1478 28.7955 33.644C28.5417 34.1365 28.1989 34.5778 27.767 34.9679C27.339 35.3543 26.8277 35.6611 26.233 35.8884C25.642 36.1118 24.9735 36.2236 24.2273 36.2236C23.1894 36.2236 22.2614 35.9887 21.4432 35.519C20.6288 35.0493 19.9848 34.3694 19.5114 33.4793C19.0417 32.5891 18.8068 31.5115 18.8068 30.2463C18.8068 28.9774 19.0455 27.8978 19.5227 27.0077C20 26.1175 20.6477 25.4395 21.4659 24.9736C22.2841 24.5039 23.2045 24.269 24.2273 24.269C24.9015 24.269 25.5265 24.3637 26.1023 24.5531C26.6818 24.7425 27.1951 25.019 27.642 25.3827C28.089 25.7425 28.4527 26.1838 28.733 26.7065C29.017 27.2293 29.1989 27.8278 29.2784 28.502ZM36.0938 32.3486V27.3372H38.5142V36.0645H36.1903V34.4793H36.0994C35.9025 34.9906 35.5748 35.4016 35.1165 35.7122C34.6619 36.0228 34.107 36.1781 33.4517 36.1781C32.8684 36.1781 32.3551 36.0456 31.9119 35.7804C31.4688 35.5153 31.1222 35.1384 30.8722 34.6497C30.6259 34.1611 30.5009 33.5759 30.4972 32.894V27.3372H32.9176V32.4622C32.9214 32.9774 33.0597 33.3846 33.3324 33.6838C33.6051 33.9831 33.9706 34.1327 34.429 34.1327C34.7206 34.1327 34.9934 34.0664 35.2472 33.9338C35.5009 33.7975 35.7055 33.5967 35.8608 33.3315C36.0199 33.0664 36.0975 32.7387 36.0938 32.3486ZM47.2116 29.8259L44.9957 29.9622C44.9579 29.7728 44.8764 29.6024 44.7514 29.4509C44.6264 29.2956 44.4616 29.1725 44.2571 29.0815C44.0563 28.9868 43.8158 28.9395 43.5355 28.9395C43.1605 28.9395 42.8442 29.019 42.5866 29.1781C42.3291 29.3334 42.2003 29.5418 42.2003 29.8031C42.2003 30.0115 42.2836 30.1876 42.4503 30.3315C42.617 30.4755 42.9029 30.591 43.3082 30.6781L44.8878 30.9963C45.7363 31.1706 46.3688 31.4509 46.7855 31.8372C47.2022 32.2236 47.4105 32.7312 47.4105 33.36C47.4105 33.9319 47.242 34.4338 46.9048 34.8656C46.5715 35.2975 46.1132 35.6346 45.5298 35.877C44.9503 36.1156 44.2817 36.235 43.5241 36.235C42.3688 36.235 41.4484 35.9944 40.7628 35.5134C40.081 35.0285 39.6813 34.3694 39.5639 33.5361L41.9446 33.4111C42.0166 33.7634 42.1908 34.0323 42.4673 34.2179C42.7438 34.3997 43.098 34.4906 43.5298 34.4906C43.9541 34.4906 44.295 34.4092 44.5526 34.2463C44.8139 34.0797 44.9465 33.8656 44.9503 33.6043C44.9465 33.3846 44.8537 33.2047 44.6719 33.0645C44.4901 32.9206 44.2098 32.8107 43.831 32.735L42.3196 32.4338C41.4673 32.2634 40.8329 31.9679 40.4162 31.5475C40.0033 31.127 39.7969 30.591 39.7969 29.9395C39.7969 29.3789 39.9484 28.8959 40.2514 28.4906C40.5582 28.0853 40.9882 27.7728 41.5412 27.5531C42.098 27.3334 42.7495 27.2236 43.4957 27.2236C44.598 27.2236 45.4654 27.4565 46.098 27.9225C46.7344 28.3884 47.1056 29.0228 47.2116 29.8259ZM53.0767 27.3372V29.1554H47.821V27.3372H53.0767ZM49.0142 25.2463H51.4347V33.3827C51.4347 33.6062 51.4688 33.7804 51.5369 33.9054C51.6051 34.0266 51.6998 34.1118 51.821 34.1611C51.946 34.2103 52.09 34.235 52.2528 34.235C52.3665 34.235 52.4801 34.2255 52.5938 34.2065C52.7074 34.1838 52.7945 34.1668 52.8551 34.1554L53.2358 35.9565C53.1146 35.9944 52.9441 36.038 52.7244 36.0872C52.5047 36.1403 52.2377 36.1725 51.9233 36.1838C51.34 36.2065 50.8286 36.1289 50.3892 35.9509C49.9536 35.7728 49.6146 35.4963 49.3722 35.1213C49.1297 34.7463 49.0104 34.2728 49.0142 33.7009V25.2463ZM58.0028 36.235C57.1203 36.235 56.357 36.0475 55.7131 35.6725C55.0729 35.2937 54.5786 34.7672 54.2301 34.0929C53.8816 33.4149 53.7074 32.6289 53.7074 31.735C53.7074 30.8334 53.8816 30.0456 54.2301 29.3713C54.5786 28.6933 55.0729 28.1668 55.7131 27.7918C56.357 27.413 57.1203 27.2236 58.0028 27.2236C58.8854 27.2236 59.6468 27.413 60.2869 27.7918C60.9309 28.1668 61.4271 28.6933 61.7756 29.3713C62.1241 30.0456 62.2983 30.8334 62.2983 31.735C62.2983 32.6289 62.1241 33.4149 61.7756 34.0929C61.4271 34.7672 60.9309 35.2937 60.2869 35.6725C59.6468 36.0475 58.8854 36.235 58.0028 36.235ZM58.0142 34.36C58.4157 34.36 58.7509 34.2463 59.0199 34.019C59.2888 33.788 59.4915 33.4736 59.6278 33.0759C59.768 32.6781 59.8381 32.2255 59.8381 31.7179C59.8381 31.2103 59.768 30.7577 59.6278 30.36C59.4915 29.9622 59.2888 29.6478 59.0199 29.4168C58.7509 29.1857 58.4157 29.0702 58.0142 29.0702C57.6089 29.0702 57.268 29.1857 56.9915 29.4168C56.7188 29.6478 56.5123 29.9622 56.3722 30.36C56.2358 30.7577 56.1676 31.2103 56.1676 31.7179C56.1676 32.2255 56.2358 32.6781 56.3722 33.0759C56.5123 33.4736 56.7188 33.788 56.9915 34.019C57.268 34.2463 57.6089 34.36 58.0142 34.36ZM63.3722 36.0645V27.3372H65.679V28.877H65.7812C65.9631 28.3656 66.2661 27.9622 66.6903 27.6668C67.1146 27.3713 67.6222 27.2236 68.2131 27.2236C68.8116 27.2236 69.321 27.3732 69.7415 27.6725C70.1619 27.9679 70.4422 28.3694 70.5824 28.877H70.6733C70.8513 28.377 71.1733 27.9774 71.6392 27.6781C72.1089 27.3751 72.6638 27.2236 73.304 27.2236C74.1184 27.2236 74.7794 27.4831 75.2869 28.002C75.7983 28.5172 76.054 29.2482 76.054 30.1952V36.0645H73.6392V30.6725C73.6392 30.1876 73.5104 29.824 73.2528 29.5815C72.9953 29.3391 72.6733 29.2179 72.2869 29.2179C71.8475 29.2179 71.5047 29.3581 71.2585 29.6384C71.0123 29.9149 70.8892 30.2804 70.8892 30.735V36.0645H68.5426V30.6213C68.5426 30.1933 68.4195 29.8524 68.1733 29.5986C67.9309 29.3448 67.6108 29.2179 67.2131 29.2179C66.9441 29.2179 66.7017 29.2861 66.4858 29.4225C66.2737 29.555 66.1051 29.7425 65.9801 29.985C65.8551 30.2236 65.7926 30.5039 65.7926 30.8259V36.0645H63.3722ZM81.4432 36.235C80.5455 36.235 79.7727 36.0531 79.125 35.6895C78.4811 35.3221 77.9848 34.8031 77.6364 34.1327C77.2879 33.4584 77.1136 32.6611 77.1136 31.7406C77.1136 30.8429 77.2879 30.055 77.6364 29.377C77.9848 28.699 78.4754 28.1706 79.108 27.7918C79.7443 27.413 80.4905 27.2236 81.3466 27.2236C81.9223 27.2236 82.4583 27.3164 82.9545 27.502C83.4545 27.6838 83.8902 27.9584 84.2614 28.3259C84.6364 28.6933 84.928 29.1554 85.1364 29.7122C85.3447 30.2653 85.4489 30.913 85.4489 31.6554V32.3202H78.0795V30.8202H83.1705C83.1705 30.4717 83.0947 30.163 82.9432 29.894C82.7917 29.6251 82.5814 29.4149 82.3125 29.2634C82.0473 29.1081 81.7386 29.0304 81.3864 29.0304C81.0189 29.0304 80.6932 29.1156 80.4091 29.2861C80.1288 29.4528 79.9091 29.6781 79.75 29.9622C79.5909 30.2425 79.5095 30.555 79.5057 30.8997V32.3259C79.5057 32.7577 79.5852 33.1308 79.7443 33.4452C79.9072 33.7596 80.1364 34.002 80.4318 34.1725C80.7273 34.3429 81.0777 34.4281 81.483 34.4281C81.7519 34.4281 81.9981 34.3903 82.2216 34.3145C82.4451 34.2387 82.6364 34.1251 82.7955 33.9736C82.9545 33.8221 83.0758 33.6365 83.1591 33.4168L85.3977 33.5645C85.2841 34.1024 85.0511 34.5721 84.6989 34.9736C84.3504 35.3713 83.8996 35.6819 83.3466 35.9054C82.7973 36.1251 82.1629 36.235 81.4432 36.235ZM86.5284 36.0645V27.3372H88.875V28.86H88.9659C89.125 28.3183 89.392 27.9092 89.767 27.6327C90.142 27.3524 90.5739 27.2122 91.0625 27.2122C91.1837 27.2122 91.3144 27.2198 91.4545 27.235C91.5947 27.2501 91.7178 27.2709 91.8239 27.2975V29.4452C91.7102 29.4111 91.553 29.3808 91.3523 29.3543C91.1515 29.3278 90.9678 29.3145 90.8011 29.3145C90.4451 29.3145 90.1269 29.3922 89.8466 29.5475C89.5701 29.699 89.3504 29.9111 89.1875 30.1838C89.0284 30.4565 88.9489 30.7709 88.9489 31.127V36.0645H86.5284ZM103.54 28.1895C103.46 27.913 103.348 27.6687 103.205 27.4565C103.061 27.2406 102.884 27.0588 102.676 26.9111C102.472 26.7596 102.237 26.644 101.972 26.5645C101.71 26.485 101.42 26.4452 101.102 26.4452C100.508 26.4452 99.9848 26.5929 99.5341 26.8884C99.0871 27.1838 98.7386 27.6137 98.4886 28.1781C98.2386 28.7387 98.1136 29.4243 98.1136 30.235C98.1136 31.0456 98.2367 31.735 98.483 32.3031C98.7292 32.8713 99.0777 33.305 99.5284 33.6043C99.9792 33.8997 100.511 34.0475 101.125 34.0475C101.682 34.0475 102.157 33.949 102.551 33.752C102.949 33.5512 103.252 33.269 103.46 32.9054C103.672 32.5418 103.778 32.1118 103.778 31.6156L104.278 31.6895H101.278V29.8372H106.148V31.3031C106.148 32.3259 105.932 33.2047 105.5 33.9395C105.068 34.6706 104.473 35.235 103.716 35.6327C102.958 36.0266 102.091 36.2236 101.114 36.2236C100.023 36.2236 99.0644 35.9831 98.2386 35.502C97.4129 35.0172 96.7689 34.3297 96.3068 33.4395C95.8485 32.5456 95.6193 31.485 95.6193 30.2577C95.6193 29.3145 95.7557 28.4736 96.0284 27.735C96.3049 26.9925 96.6913 26.3637 97.1875 25.8486C97.6837 25.3334 98.2614 24.9414 98.9205 24.6725C99.5795 24.4035 100.294 24.269 101.062 24.269C101.722 24.269 102.335 24.3656 102.903 24.5588C103.472 24.7482 103.975 25.0172 104.415 25.3656C104.858 25.7141 105.22 26.1289 105.5 26.61C105.78 27.0872 105.96 27.6137 106.04 28.1895H103.54ZM107.45 36.0645V27.3372H109.797V28.86H109.888C110.047 28.3183 110.314 27.9092 110.689 27.6327C111.064 27.3524 111.496 27.2122 111.984 27.2122C112.106 27.2122 112.236 27.2198 112.376 27.235C112.517 27.2501 112.64 27.2709 112.746 27.2975V29.4452C112.632 29.4111 112.475 29.3808 112.274 29.3543C112.073 29.3278 111.89 29.3145 111.723 29.3145C111.367 29.3145 111.049 29.3922 110.768 29.5475C110.492 29.699 110.272 29.9111 110.109 30.1838C109.95 30.4565 109.871 30.7709 109.871 31.127V36.0645H107.45ZM117.034 36.235C116.152 36.235 115.388 36.0475 114.744 35.6725C114.104 35.2937 113.61 34.7672 113.261 34.0929C112.913 33.4149 112.739 32.6289 112.739 31.735C112.739 30.8334 112.913 30.0456 113.261 29.3713C113.61 28.6933 114.104 28.1668 114.744 27.7918C115.388 27.413 116.152 27.2236 117.034 27.2236C117.917 27.2236 118.678 27.413 119.318 27.7918C119.962 28.1668 120.458 28.6933 120.807 29.3713C121.155 30.0456 121.33 30.8334 121.33 31.735C121.33 32.6289 121.155 33.4149 120.807 34.0929C120.458 34.7672 119.962 35.2937 119.318 35.6725C118.678 36.0475 117.917 36.235 117.034 36.235ZM117.045 34.36C117.447 34.36 117.782 34.2463 118.051 34.019C118.32 33.788 118.523 33.4736 118.659 33.0759C118.799 32.6781 118.869 32.2255 118.869 31.7179C118.869 31.2103 118.799 30.7577 118.659 30.36C118.523 29.9622 118.32 29.6478 118.051 29.4168C117.782 29.1857 117.447 29.0702 117.045 29.0702C116.64 29.0702 116.299 29.1857 116.023 29.4168C115.75 29.6478 115.544 29.9622 115.403 30.36C115.267 30.7577 115.199 31.2103 115.199 31.7179C115.199 32.2255 115.267 32.6781 115.403 33.0759C115.544 33.4736 115.75 33.788 116.023 34.019C116.299 34.2463 116.64 34.36 117.045 34.36ZM123.906 36.0645L121.531 27.3372H123.98L125.332 33.2009H125.412L126.821 27.3372H129.224L130.656 33.1668H130.73L132.06 27.3372H134.503L132.134 36.0645H129.571L128.071 30.5759H127.963L126.463 36.0645H123.906ZM139.936 27.3372V29.1554H134.68V27.3372H139.936ZM135.874 25.2463H138.294V33.3827C138.294 33.6062 138.328 33.7804 138.396 33.9054C138.464 34.0266 138.559 34.1118 138.68 34.1611C138.805 34.2103 138.949 34.235 139.112 34.235C139.226 34.235 139.339 34.2255 139.453 34.2065C139.567 34.1838 139.654 34.1668 139.714 34.1554L140.095 35.9565C139.974 35.9944 139.804 36.038 139.584 36.0872C139.364 36.1403 139.097 36.1725 138.783 36.1838C138.199 36.2065 137.688 36.1289 137.249 35.9509C136.813 35.7728 136.474 35.4963 136.232 35.1213C135.989 34.7463 135.87 34.2728 135.874 33.7009V25.2463ZM143.621 31.019V36.0645H141.2V24.4281H143.553V28.877H143.655C143.852 28.3618 144.17 27.9584 144.609 27.6668C145.049 27.3713 145.6 27.2236 146.263 27.2236C146.869 27.2236 147.397 27.3562 147.848 27.6213C148.303 27.8827 148.655 28.2596 148.905 28.752C149.159 29.2406 149.284 29.8259 149.28 30.5077V36.0645H146.859V30.9395C146.863 30.4016 146.727 29.9831 146.45 29.6838C146.178 29.3846 145.795 29.235 145.303 29.235C144.973 29.235 144.681 29.305 144.428 29.4452C144.178 29.5853 143.981 29.7899 143.837 30.0588C143.696 30.324 143.625 30.644 143.621 31.019Z" fill="#1D1E25"/>
<line x1="46.7017" y1="69.7734" x2="189.702" y2="69.7734" stroke="#E6E9ED" stroke-dasharray="2 2"/>
<line x1="46.7017" y1="121.773" x2="189.702" y2="121.773" stroke="#E6E9ED" stroke-dasharray="2 2"/>
<line x1="46.7017" y1="176.773" x2="189.702" y2="176.773" stroke="#E6E9ED" stroke-dasharray="2 2"/>
<path d="M55.2505 191.486H56.3073V197.725C56.3073 198.282 56.205 198.755 56.0005 199.144C55.7959 199.533 55.5076 199.829 55.1354 200.03C54.7632 200.232 54.3243 200.333 53.8186 200.333C53.3414 200.333 52.9167 200.246 52.5445 200.073C52.1723 199.897 51.8797 199.647 51.6667 199.323C51.4536 198.999 51.3471 198.614 51.3471 198.168H52.3868C52.3868 198.415 52.4479 198.631 52.5701 198.816C52.6951 198.998 52.8655 199.14 53.0814 199.242C53.2973 199.344 53.5431 199.396 53.8186 199.396C54.1226 199.396 54.3811 199.332 54.5942 199.204C54.8073 199.076 54.9692 198.888 55.08 198.641C55.1936 198.391 55.2505 198.086 55.2505 197.725V191.486ZM60.215 200.367C59.8002 200.367 59.4238 200.289 59.0857 200.133C58.7476 199.974 58.4792 199.745 58.2803 199.447C58.0814 199.146 57.982 198.782 57.982 198.356C57.982 197.981 58.0559 197.677 58.2036 197.444C58.3513 197.208 58.5488 197.023 58.7959 196.89C59.0431 196.756 59.3158 196.657 59.6141 196.592C59.9152 196.523 60.2178 196.469 60.5218 196.43C60.9195 196.378 61.2419 196.34 61.4891 196.315C61.7391 196.286 61.9209 196.239 62.0346 196.174C62.151 196.109 62.2093 195.995 62.2093 195.833V195.799C62.2093 195.378 62.0942 195.052 61.8641 194.819C61.6368 194.586 61.2917 194.469 60.8286 194.469C60.3485 194.469 59.9721 194.574 59.6993 194.785C59.4266 194.995 59.2348 195.219 59.124 195.458L58.1695 195.117C58.34 194.719 58.5672 194.41 58.8513 194.188C59.1382 193.964 59.4507 193.807 59.7888 193.719C60.1297 193.628 60.465 193.583 60.7945 193.583C61.0047 193.583 61.2462 193.609 61.5189 193.66C61.7945 193.708 62.0601 193.809 62.3158 193.962C62.5743 194.116 62.7888 194.347 62.9593 194.657C63.1297 194.967 63.215 195.381 63.215 195.901V200.214H62.2093V199.327H62.1581C62.09 199.469 61.9763 199.621 61.8172 199.783C61.6581 199.945 61.4465 200.083 61.1823 200.197C60.9181 200.31 60.5956 200.367 60.215 200.367ZM60.3684 199.464C60.7661 199.464 61.1013 199.386 61.374 199.229C61.6496 199.073 61.857 198.871 61.9962 198.624C62.1382 198.377 62.2093 198.117 62.2093 197.844V196.924C62.1667 196.975 62.0729 197.022 61.928 197.065C61.786 197.104 61.6212 197.14 61.4337 197.171C61.249 197.199 61.0686 197.225 60.8925 197.248C60.7192 197.268 60.5786 197.285 60.4706 197.299C60.2093 197.333 59.965 197.388 59.7377 197.465C59.5132 197.539 59.3314 197.651 59.1922 197.802C59.0559 197.949 58.9877 198.151 58.9877 198.407C58.9877 198.756 59.1169 199.021 59.3755 199.199C59.6368 199.376 59.9678 199.464 60.3684 199.464ZM66.0562 196.276V200.214H65.0505V193.668H66.0221V194.691H66.1074C66.2608 194.359 66.4937 194.092 66.8062 193.89C67.1187 193.685 67.5221 193.583 68.0164 193.583C68.4596 193.583 68.8474 193.674 69.1798 193.856C69.5122 194.035 69.7707 194.307 69.9554 194.674C70.14 195.038 70.2324 195.498 70.2324 196.055V200.214H69.2267V196.123C69.2267 195.609 69.0931 195.208 68.8261 194.921C68.5591 194.631 68.1926 194.486 67.7267 194.486C67.4056 194.486 67.1187 194.556 66.8659 194.695C66.6159 194.834 66.4184 195.038 66.2735 195.305C66.1287 195.572 66.0562 195.896 66.0562 196.276Z" fill="#808D9E"/>
<path opacity="0.7" d="M18.7303 64.8145V63.7745H20.8103V71.0645H19.6603V64.8145H18.7303ZM22.3764 67.3245C22.3764 66.1712 22.5697 65.2712 22.9564 64.6245C23.3497 63.9712 24.023 63.6445 24.9764 63.6445C25.9297 63.6445 26.5997 63.9712 26.9864 64.6245C27.3797 65.2712 27.5764 66.1712 27.5764 67.3245C27.5764 68.4912 27.3797 69.4045 26.9864 70.0645C26.5997 70.7178 25.9297 71.0445 24.9764 71.0445C24.023 71.0445 23.3497 70.7178 22.9564 70.0645C22.5697 69.4045 22.3764 68.4912 22.3764 67.3245ZM26.4564 67.3245C26.4564 66.7845 26.4197 66.3278 26.3464 65.9545C26.2797 65.5812 26.1397 65.2778 25.9264 65.0445C25.713 64.8045 25.3964 64.6845 24.9764 64.6845C24.5564 64.6845 24.2397 64.8045 24.0264 65.0445C23.813 65.2778 23.6697 65.5812 23.5964 65.9545C23.5297 66.3278 23.4964 66.7845 23.4964 67.3245C23.4964 67.8845 23.5297 68.3545 23.5964 68.7345C23.663 69.1145 23.803 69.4212 24.0164 69.6545C24.2364 69.8878 24.5564 70.0045 24.9764 70.0045C25.3964 70.0045 25.713 69.8878 25.9264 69.6545C26.1464 69.4212 26.2897 69.1145 26.3564 68.7345C26.423 68.3545 26.4564 67.8845 26.4564 67.3245ZM31.1126 68.3145L33.6526 71.0645H32.1126L30.0726 68.6945V71.0645H28.9326V63.6645H30.0726V67.9645L32.0726 65.5545H33.6526L31.1126 68.3145Z" fill="#1D1E25"/>
<path opacity="0.7" d="M25.3381 118.754H21.9881V120.744C22.1281 120.558 22.3348 120.401 22.6081 120.274C22.8881 120.148 23.1848 120.084 23.4981 120.084C24.0581 120.084 24.5114 120.204 24.8581 120.444C25.2114 120.684 25.4614 120.988 25.6081 121.354C25.7614 121.721 25.8381 122.108 25.8381 122.514C25.8381 123.008 25.7414 123.448 25.5481 123.834C25.3614 124.214 25.0781 124.514 24.6981 124.734C24.3248 124.954 23.8648 125.064 23.3181 125.064C22.5914 125.064 22.0081 124.884 21.5681 124.524C21.1281 124.164 20.8648 123.688 20.7781 123.094H21.8881C21.9614 123.408 22.1248 123.658 22.3781 123.844C22.6314 124.024 22.9481 124.114 23.3281 124.114C23.8014 124.114 24.1548 123.971 24.3881 123.684C24.6281 123.398 24.7481 123.018 24.7481 122.544C24.7481 122.064 24.6281 121.698 24.3881 121.444C24.1481 121.184 23.7948 121.054 23.3281 121.054C23.0014 121.054 22.7248 121.138 22.4981 121.304C22.2781 121.464 22.1181 121.684 22.0181 121.964H20.9381V117.754H25.3381V118.754ZM29.3548 122.314L31.8948 125.064H30.3548L28.3148 122.694V125.064H27.1748V117.664H28.3148V121.964L30.3148 119.554H31.8948L29.3548 122.314Z" fill="#1D1E25"/>
<path opacity="0.7" d="M23.3969 175.324C23.3969 174.171 23.5902 173.271 23.9769 172.624C24.3702 171.971 25.0435 171.644 25.9969 171.644C26.9502 171.644 27.6202 171.971 28.0069 172.624C28.4002 173.271 28.5969 174.171 28.5969 175.324C28.5969 176.491 28.4002 177.404 28.0069 178.064C27.6202 178.718 26.9502 179.044 25.9969 179.044C25.0435 179.044 24.3702 178.718 23.9769 178.064C23.5902 177.404 23.3969 176.491 23.3969 175.324ZM27.4769 175.324C27.4769 174.784 27.4402 174.328 27.3669 173.954C27.3002 173.581 27.1602 173.278 26.9469 173.044C26.7335 172.804 26.4169 172.684 25.9969 172.684C25.5769 172.684 25.2602 172.804 25.0469 173.044C24.8335 173.278 24.6902 173.581 24.6169 173.954C24.5502 174.328 24.5169 174.784 24.5169 175.324C24.5169 175.884 24.5502 176.354 24.6169 176.734C24.6835 177.114 24.8235 177.421 25.0369 177.654C25.2569 177.888 25.5769 178.004 25.9969 178.004C26.4169 178.004 26.7335 177.888 26.9469 177.654C27.1669 177.421 27.3102 177.114 27.3769 176.734C27.4435 176.354 27.4769 175.884 27.4769 175.324Z" fill="#1D1E25"/>
<path d="M164.619 191.486H165.88L168.846 198.731H168.948L171.914 191.486H173.175V200.214H172.187V193.583H172.102L169.374 200.214H168.42L165.692 193.583H165.607V200.214H164.619V191.486ZM177.084 200.367C176.669 200.367 176.293 200.289 175.955 200.133C175.617 199.974 175.348 199.745 175.149 199.447C174.951 199.146 174.851 198.782 174.851 198.356C174.851 197.981 174.925 197.677 175.073 197.444C175.22 197.208 175.418 197.023 175.665 196.89C175.912 196.756 176.185 196.657 176.483 196.592C176.784 196.523 177.087 196.469 177.391 196.43C177.789 196.378 178.111 196.34 178.358 196.315C178.608 196.286 178.79 196.239 178.904 196.174C179.02 196.109 179.078 195.995 179.078 195.833V195.799C179.078 195.378 178.963 195.052 178.733 194.819C178.506 194.586 178.161 194.469 177.698 194.469C177.218 194.469 176.841 194.574 176.568 194.785C176.296 194.995 176.104 195.219 175.993 195.458L175.039 195.117C175.209 194.719 175.436 194.41 175.72 194.188C176.007 193.964 176.32 193.807 176.658 193.719C176.999 193.628 177.334 193.583 177.664 193.583C177.874 193.583 178.115 193.609 178.388 193.66C178.664 193.708 178.929 193.809 179.185 193.962C179.443 194.116 179.658 194.347 179.828 194.657C179.999 194.967 180.084 195.381 180.084 195.901V200.214H179.078V199.327H179.027C178.959 199.469 178.845 199.621 178.686 199.783C178.527 199.945 178.316 200.083 178.051 200.197C177.787 200.31 177.465 200.367 177.084 200.367ZM177.238 199.464C177.635 199.464 177.97 199.386 178.243 199.229C178.519 199.073 178.726 198.871 178.865 198.624C179.007 198.377 179.078 198.117 179.078 197.844V196.924C179.036 196.975 178.942 197.022 178.797 197.065C178.655 197.104 178.49 197.14 178.303 197.171C178.118 197.199 177.938 197.225 177.762 197.248C177.588 197.268 177.448 197.285 177.34 197.299C177.078 197.333 176.834 197.388 176.607 197.465C176.382 197.539 176.201 197.651 176.061 197.802C175.925 197.949 175.857 198.151 175.857 198.407C175.857 198.756 175.986 199.021 176.245 199.199C176.506 199.376 176.837 199.464 177.238 199.464ZM181.92 200.214V193.668H182.891V194.657H182.959C183.079 194.333 183.295 194.07 183.607 193.869C183.92 193.667 184.272 193.566 184.664 193.566C184.738 193.566 184.83 193.567 184.941 193.57C185.052 193.573 185.136 193.577 185.192 193.583V194.606C185.158 194.597 185.08 194.584 184.958 194.567C184.839 194.548 184.712 194.538 184.579 194.538C184.261 194.538 183.977 194.604 183.727 194.738C183.479 194.869 183.283 195.05 183.138 195.283C182.996 195.513 182.925 195.776 182.925 196.072V200.214H181.92Z" fill="#808D9E"/>
<path d="M108.619 200.214V191.486H113.852V192.424H109.676V195.373H113.46V196.31H109.676V200.214H108.619ZM117.79 200.35C117.159 200.35 116.615 200.211 116.157 199.932C115.703 199.651 115.352 199.259 115.105 198.756C114.861 198.251 114.738 197.663 114.738 196.992C114.738 196.322 114.861 195.731 115.105 195.219C115.352 194.705 115.696 194.305 116.136 194.018C116.579 193.728 117.096 193.583 117.687 193.583C118.028 193.583 118.365 193.64 118.697 193.753C119.03 193.867 119.332 194.052 119.605 194.307C119.878 194.56 120.095 194.896 120.257 195.313C120.419 195.731 120.5 196.245 120.5 196.856V197.282H115.454V196.413H119.477C119.477 196.043 119.403 195.714 119.255 195.424C119.111 195.134 118.903 194.905 118.633 194.738C118.366 194.57 118.051 194.486 117.687 194.486C117.287 194.486 116.94 194.586 116.648 194.785C116.358 194.981 116.135 195.236 115.978 195.552C115.822 195.867 115.744 196.205 115.744 196.566V197.146C115.744 197.64 115.829 198.059 116 198.403C116.173 198.744 116.413 199.003 116.72 199.182C117.027 199.359 117.383 199.447 117.79 199.447C118.054 199.447 118.292 199.41 118.505 199.336C118.721 199.259 118.907 199.146 119.064 198.995C119.22 198.842 119.341 198.651 119.426 198.424L120.398 198.697C120.295 199.026 120.123 199.316 119.882 199.566C119.64 199.813 119.342 200.006 118.987 200.146C118.632 200.282 118.233 200.35 117.79 200.35ZM122.166 200.214V191.486H123.172V194.708H123.257C123.331 194.594 123.433 194.449 123.564 194.273C123.697 194.094 123.888 193.935 124.135 193.796C124.385 193.654 124.723 193.583 125.149 193.583C125.7 193.583 126.186 193.721 126.606 193.996C127.027 194.272 127.355 194.663 127.591 195.168C127.827 195.674 127.944 196.271 127.944 196.958C127.944 197.651 127.827 198.252 127.591 198.761C127.355 199.266 127.028 199.658 126.611 199.937C126.193 200.212 125.711 200.35 125.166 200.35C124.746 200.35 124.409 200.28 124.156 200.141C123.903 199.999 123.709 199.839 123.572 199.66C123.436 199.478 123.331 199.327 123.257 199.208H123.138V200.214H122.166ZM123.155 196.941C123.155 197.435 123.227 197.871 123.372 198.249C123.517 198.624 123.728 198.918 124.007 199.131C124.285 199.342 124.626 199.447 125.03 199.447C125.45 199.447 125.801 199.336 126.082 199.114C126.366 198.89 126.579 198.589 126.721 198.211C126.866 197.83 126.939 197.407 126.939 196.941C126.939 196.481 126.868 196.066 126.726 195.697C126.586 195.324 126.375 195.03 126.091 194.815C125.809 194.596 125.456 194.486 125.03 194.486C124.621 194.486 124.277 194.59 123.998 194.798C123.72 195.002 123.51 195.289 123.368 195.658C123.226 196.025 123.155 196.452 123.155 196.941Z" fill="#808D9E"/>
<rect x="54.75" y="74.5645" width="15" height="52.5351" rx="7.5" fill="#EB6E46" stroke="white" stroke-width="3"/>
<rect x="54.75" y="89.3608" width="15" height="52.5351" rx="7.5" fill="#20BFF7" stroke="white" stroke-width="3"/>
<rect x="54.75" y="126.673" width="15" height="52.5351" rx="7.5" fill="#2280FF" stroke="white" stroke-width="3"/>
<rect x="110.75" y="108.66" width="15" height="35.2918" rx="7.5" fill="#EB6E46" stroke="white" stroke-width="3"/>
<rect x="110.75" y="133.106" width="15" height="35.2918" rx="7.5" fill="#20BFF7" stroke="white" stroke-width="3"/>
<rect x="110.75" y="158.839" width="15" height="20.3694" rx="7.5" fill="#2280FF" stroke="white" stroke-width="3"/>
<rect x="166.75" y="113.163" width="15" height="33.7243" rx="7.5" fill="#EB6E46" stroke="white" stroke-width="3"/>
<rect x="166.75" y="122.341" width="15" height="33.7243" rx="7.5" fill="#20BFF7" stroke="white" stroke-width="3"/>
<rect x="166.75" y="145.485" width="15" height="33.7243" rx="7.5" fill="#2280FF" stroke="white" stroke-width="3"/>
</svg>
